Coordinates
version=1
nRows=9
nColumns=63
inDegrees=yes

Units are S.I. units (second, meters, Newtons, ...)
If the header above contains a line with 'inDegrees', this indicates whether rotational values are in degrees (yes) or radians (no).

endheader
time	pelvis_tilt	pelvis_list	pelvis_rotation	pelvis_tx	pelvis_ty	pelvis_tz	hip_flexion_r	hip_adduction_r	hip_rotation_r	knee_angle_r	knee_angle_r_beta	ankle_angle_r	subtalar_angle_r	mtp_angle_r	hip_flexion_l	hip_adduction_l	hip_rotation_l	knee_angle_l	knee_angle_l_beta	ankle_angle_l	subtalar_angle_l	mtp_angle_l	L5_S1_Flex_Ext	L5_S1_Lat_Bending	L5_S1_axial_rotation	L4_L5_Flex_Ext	L4_L5_Lat_Bending	L4_L5_axial_rotation	L3_L4_Flex_Ext	L3_L4_Lat_Bending	L3_L4_axial_rotation	L2_L3_Flex_Ext	L2_L3_Lat_Bending	L2_L3_axial_rotation	L1_L2_Flex_Ext	L1_L2_Lat_Bending	L1_L2_axial_rotation	L1_T12_Flex_Ext	L1_T12_Lat_Bending	L1_T12_axial_rotation	Abs_r3	Abs_r2	Abs_r1	Abs_t1	Abs_t2	neck_flexion	neck_bending	neck_rotation	arm_flex_r	arm_add_r	arm_rot_r	elbow_flex_r	pro_sup_r	wrist_flex_r	wrist_dev_r	arm_flex_l	arm_add_l	arm_rot_l	elbow_flex_l	pro_sup_l	wrist_flex_l	wrist_dev_l
      0.00800000	    -39.48955425	      2.15359682	     -3.95274602	     -0.15856081	      1.02268143	      0.03844513	    100.91427564	     -5.18645370	      3.45409698	    113.38079743	      1.97886822	      6.07642863	    -11.41599454	      0.00000000	     83.01357998	     -7.11716006	     -0.58022539	     51.92277489	      0.90622338	     10.91637034	     -9.28024468	      0.00000000	     -0.07078310	     -0.38363972	      0.34546344	     -0.13145129	     -0.51024083	      0.36705490	     -0.11628955	     -0.93278162	      0.36705490	     -0.08089800	     -0.93278162	      0.30228051	     -0.06572918	     -0.78231812	      0.28068904	     -0.04044546	     -0.59425793	      0.25909758	     -0.50559658	     -4.33980927	      1.92136400	      0.00000000	      0.00000000	      0.00000000	      0.00000000	      0.00000001	     67.71359304	    -11.61162288	     24.92430517	     39.48011986	     67.62041616	      0.00000000	      3.83559399	     66.92125613	    -21.14524185	     24.18690525	     46.44122606	     65.41049677	      0.00000000	      3.83559399
      0.01700000	    -39.48134565	      1.11654084	     -4.40137648	     -0.15912155	      1.02310740	      0.03730931	    102.82939437	     -5.05302553	      2.37641831	    115.19281452	      2.01049389	      7.47979106	    -11.84851831	      0.00000000	     81.10492043	     -7.97073783	     -1.00481391	     49.36250232	      0.86153819	      8.56086881	     -8.04999526	      0.00000000	     -0.07069773	     -0.19506036	      0.41788648	     -0.13129275	     -0.25943028	      0.44400439	     -0.11614929	     -0.47426977	      0.44400439	     -0.08080043	     -0.47426977	      0.36565067	     -0.06564991	     -0.39776709	      0.33953277	     -0.04039668	     -0.30214850	      0.31341486	     -0.50498678	     -2.20656184	      2.32415924	      0.00000000	      0.00000000	      0.00000000	      0.00000000	      0.00000001	     68.14565084	    -11.73044559	     24.78424511	     39.21774251	     67.59966036	      0.00000000	      3.84442115	     66.22375093	    -20.87016488	     24.05315085	     46.71769103	     65.38824339	      0.00000000	      3.84442115
      0.02500000	    -39.52055298	      0.75833068	     -4.39001689	     -0.15925819	      1.02291630	      0.03661898	    103.39401063	     -5.20768822	      1.97897453	    115.69579553	      2.01927256	      8.03902290	    -11.69058423	      0.00000000	     80.68013565	     -8.14075421	     -1.17005429	     48.88246419	      0.85315995	      7.86787835	     -7.51488839	      0.00000000	     -0.06900444	     -0.12843194	      0.40314119	     -0.12814814	     -0.17081448	      0.42833751	     -0.11336739	     -0.31226943	      0.42833751	     -0.07886517	     -0.31226943	      0.35274854	     -0.06407752	     -0.26189842	      0.32755221	     -0.03942914	     -0.19894108	      0.30235589	     -0.49289180	     -1.45284783	      2.24215033	      0.00000000	      0.00000000	      0.00000000	      0.00000000	      0.00000001	     68.36908108	    -11.60464248	     24.89564206	     39.10249546	     67.52633984	      0.00000000	      3.86218419	     65.92246183	    -20.82515037	     23.43592849	     46.74092719	     65.25366768	      0.00000000	      3.86218419
      0.03300000	    -39.51705570	      0.47711295	     -4.35649663	     -0.15925990	      1.02260994	      0.03569257	    104.08505382	     -5.36631246	      1.76957838	    116.29717686	      2.02976865	      8.39261240	    -11.34615920	      0.00000000	     80.13180349	     -8.20944102	     -1.26113255	     48.44640463	      0.84554927	      7.55579086	     -6.94232286	      0.00000000	     -0.06808224	     -0.07025713	      0.38865835	     -0.12643553	     -0.09344198	      0.41294950	     -0.11185232	     -0.17082318	      0.41294950	     -0.07781119	     -0.17082318	      0.34007606	     -0.06322117	     -0.14326833	      0.31578491	     -0.03890219	     -0.10882829	      0.29149376	     -0.48630465	     -0.79476267	      2.16160115	      0.00000000	      0.00000000	      0.00000000	      0.00000000	      0.00000001	     68.79259443	    -11.59949043	     25.89164685	     38.72002946	     67.58181041	      0.00000000	      3.92069681	     65.24239381	    -20.21887980	     21.00131368	     46.76407610	     65.02464588	      0.00000000	      3.92069681
      0.04200000	    -39.51784864	      0.32270521	     -4.48690235	     -0.15932197	      1.02236637	      0.03516187	    104.90531140	     -5.30276418	      1.61849670	    116.86988334	      2.03976426	      8.46055320	    -11.30454853	      0.00000000	     79.44070823	     -8.40408766	     -1.53102068	     47.87176479	      0.83551991	      7.09516492	     -6.64978153	      0.00000000	     -0.06790499	     -0.03278416	      0.42663015	     -0.12610635	     -0.04360293	      0.45329453	     -0.11156110	     -0.07971140	      0.45329453	     -0.07760861	     -0.07971140	      0.37330138	     -0.06305657	     -0.06685346	      0.34663699	     -0.03880091	     -0.05078266	      0.31997261	     -0.48503852	     -0.37086096	      2.37278889	      0.00000000	      0.00000000	      0.00000000	      0.00000000	      0.00000001	     68.92385832	    -11.62081299	     26.00734493	     38.70768274	     67.58467818	      0.00000000	      3.92956548	     65.14535546	    -20.07971088	     20.89899933	     46.56181941	     65.02418842	      0.00000000	      3.92956548
      0.05000000	    -39.50764342	      0.23266789	     -4.59947094	     -0.15940957	      1.02212721	      0.03462734	    105.79490485	     -5.21941911	      1.55035421	    117.42585771	      2.04946784	      8.55141089	    -11.24297404	      0.00000000	     78.68094494	     -8.59846089	     -1.98286633	     47.28853772	      0.82534068	      6.65817808	     -6.24388681	      0.00000000	     -0.06763705	     -0.00533872	      0.46874040	     -0.12560876	     -0.00710049	      0.49803668	     -0.11112091	     -0.01298055	      0.49803668	     -0.07730238	     -0.01298055	      0.41014785	     -0.06280776	     -0.01088671	      0.38085158	     -0.03864781	     -0.00826967	      0.35155530	     -0.48312467	     -0.06039262	      2.60699350	      0.00000000	      0.00000000	      0.00000000	      0.00000000	      0.00000001	     69.05943029	    -11.69376095	     26.19729251	     38.67683349	     67.59637978	      0.00000000	      3.93994036	     65.08787162	    -19.81683480	     20.66660677	     46.23202855	     65.01306985	      0.00000000	      3.93994036
      0.05800000	    -39.49524026	      0.17171015	     -4.72523323	     -0.15949908	      1.02193973	      0.03414827	    106.70929554	     -5.08062212	      1.53366239	    117.93905910	      2.05842490	      8.74746019	    -11.17302001	      0.00000000	     77.89239432	     -8.81389009	     -2.52390304	     46.76271910	      0.81616342	      6.32128584	     -5.74455924	      0.00000000	     -0.06726236	      0.01517700	      0.51930214	     -0.12491293	      0.02018541	      0.55175852	     -0.11050533	      0.03690136	      0.55175852	     -0.07687415	      0.03690136	      0.45438937	     -0.06245983	      0.03094894	      0.42193299	     -0.03843371	      0.02350918	      0.38947660	     -0.48044832	      0.17168528	      2.88820271	      0.00000000	      0.00000000	      0.00000000	      0.00000000	      0.00000001	     69.17039898	    -11.82271725	     26.43934273	     38.68033201	     67.61199075	      0.00000000	      3.95212101	     65.05509386	    -19.46351424	     20.35788952	     45.84442420	     64.99654436	      0.00000000	      3.95212101
      0.06700000	    -39.46252864	      0.17256960	     -4.92698468	     -0.15949816	      1.02174329	      0.03386193	    107.60766769	     -4.79963950	      1.62059116	    118.39911755	      2.06645443	      9.23713497	    -10.91536202	      0.00000000	     77.11909547	     -9.16942991	     -3.32862939	     46.45774733	      0.81084065	      6.37039625	     -4.81944639	      0.00000000	     -0.06555914	      0.02425662	      0.58797193	     -0.12174989	      0.03226131	      0.62472018	     -0.10770712	      0.05897756	      0.62472018	     -0.07492755	      0.05897756	      0.51447544	     -0.06087822	      0.04946411	      0.47772719	     -0.03746050	      0.03757351	      0.44097895	     -0.46828241	      0.27439579	      3.27012348	      0.00000000	      0.00000000	      0.00000000	      0.00000000	      0.00000001	     69.25537750	    -12.09349029	     26.96148831	     38.77525315	     67.63354046	      0.00000000	      3.98429413	     65.02059114	    -18.95640289	     19.68581864	     45.32597267	     64.96500469	      0.00000000	      3.98429413
      0.07500000	    -39.47924186	     -0.05163183	     -5.03925509	     -0.15962798	      1.02173918	      0.03334166	    108.45716462	     -4.65769565	      1.46604550	    118.70599388	      2.07181044	      9.64077255	    -10.84446829	      0.00000000	     76.42958758	     -9.38569997	     -3.56905233	     46.08147601	      0.80427348	      6.09144411	     -4.38042948	      0.00000000	     -0.06496659	      0.06448011	      0.62995256	     -0.12064945	      0.08575855	      0.66932460	     -0.10673361	      0.15677694	      0.66932460	     -0.07425032	      0.15677694	      0.55120849	     -0.06032798	      0.13148784	      0.51183646	     -0.03712191	      0.09987969	      0.47246442	     -0.46404985	      0.72941190	      3.50360717	      0.00000000	      0.00000000	      0.00000000	      0.00000000	      0.00000001	     69.36791537	    -12.24639542	     27.04864303	     38.76099707	     67.62685450	      0.00000000	      3.99780427	     64.92231979	    -18.72411432	     19.53293126	     45.13840821	     64.96627145	      0.00000000	      3.99780427
